<?xml version="1.0" encoding="UTF-8" standalone="no"?>
<!-- Created with Inkscape (http://www.inkscape.org/) -->

<svg
        xmlns:dc="http://purl.org/dc/elements/1.1/"
        xmlns:cc="http://creativecommons.org/ns#"
        xmlns:rdf="http://www.w3.org/1999/02/22-rdf-syntax-ns#"
        xmlns="http://www.w3.org/2000/svg"
        xmlns:sodipodi="http://sodipodi.sourceforge.net/DTD/sodipodi-0.dtd"
        xmlns:inkscape="http://www.inkscape.org/namespaces/inkscape"
        version="1.1"
        id="svg3793"
        xml:space="preserve"
        width="393.13458"
        height="40"
        viewBox="-0.1 0 628.29757 320.00001"
        sodipodi:docname="logo.svg"
        inkscape:version="0.92.3 (2405546, 2018-03-11)"><metadata
     id="metadata3799"><rdf:RDF><cc:Work
         rdf:about=""><dc:format>image/svg+xml</dc:format><dc:type
        rdf:resource="http://purl.org/dc/dcmitype/StillImage"/><dc:title></dc:title></cc:Work></rdf:RDF></metadata>
    <defs
            id="defs3797"><clipPath
       clipPathUnits="userSpaceOnUse"
       id="clipPath3809"><path
         d="M 0,2000 H 2000 V 0 H 0 Z"
         id="path3807"
         inkscape:connector-curvature="0" /></clipPath></defs>
    <sodipodi:namedview
            pagecolor="#ffffff"
            bordercolor="#666666"
            borderopacity="1"
            objecttolerance="10"
            gridtolerance="10"
            guidetolerance="10"
            inkscape:pageopacity="0"
            inkscape:pageshadow="2"
            inkscape:window-width="1920"
            inkscape:window-height="1001"
            id="namedview3795"
            showgrid="false"
            inkscape:zoom="16.020211"
            inkscape:cx="-1.012765"
            inkscape:cy="11.900943"
            inkscape:window-x="-9"
            inkscape:window-y="-9"
            inkscape:window-maximized="1"
            inkscape:current-layer="g3801"
            fit-margin-top="0"
            fit-margin-left="0"
            fit-margin-right="0"
            fit-margin-bottom="0"
            scale-x="8"
            viewbox-width="500"
            inkscape:pagecheckerboard="false"><sodipodi:guide
       position="-44.496403,-67.625336"
       orientation="0,312.85699"
       id="guide3861"
       inkscape:locked="false" />
        <sodipodi:guide
                position="455.50359,-67.625336"
                orientation="-31.832048,0"
                id="guide3863"
                inkscape:locked="false"/>
        <sodipodi:guide
                position="455.50359,187.03103"
                orientation="0,-312.85699"
                id="guide3865"
                inkscape:locked="false"/>
        <sodipodi:guide
                position="-44.496403,187.03103"
                orientation="31.832048,0"
                id="guide3867"
                inkscape:locked="false"/></sodipodi:namedview>
    <g
            id="g3801"
            inkscape:groupmode="layer"
            inkscape:label="MOCKUP_15Nov17_1747_B39724_2"
            transform="matrix(1.3333333,0,0,-1.3333333,-10191.893,1428.2118)"><g
       id="g3803"
       transform="matrix(1.2565952,0,0,1.2565952,6622.8611,-305.43613)"><g
         id="g3805"
         clip-path="url(#clipPath3809)"><g
           id="g3811"
           transform="translate(107.9937,969.5703)"><path
             d="m 0,0 c 0,-21.277 13.113,-24.987 19.05,-24.987 11.132,0 17.811,9.153 17.811,17.562 0,9.652 -7.667,12.619 -35.871,24.494 -12.865,5.195 -44.779,18.06 -44.779,52.447 0,36.864 33.399,56.408 64.075,56.408 25.235,0 60.861,-12.865 61.603,-56.903 H 35.625 c -0.99,6.186 -2.474,17.812 -16.823,17.812 -8.164,0 -16.079,-5.689 -16.079,-14.349 0,-8.409 4.946,-10.635 37.852,-25.481 34.138,-15.337 42.799,-31.17 42.799,-52.446 0,-29.193 -15.34,-58.632 -63.83,-58.632 -47.994,0 -67.29,28.201 -66.053,64.075 z"
             style="fill:#0694fc;fill-opacity:1;fill-rule:nonzero;stroke:none"
             id="path3813"
             inkscape:connector-curvature="0" /></g><g
            id="g3815"
            transform="translate(350.6768,961.1582)"><path
             d="m 0,0 c -7.421,-31.173 -34.883,-56.654 -71.993,-56.654 -41.56,0 -73.475,32.657 -73.475,73.475 0,40.326 31.418,72.983 72.487,72.983 36.368,0 65.808,-23.999 72.733,-57.644 h -41.563 c -4.453,9.403 -12.616,19.298 -29.686,19.298 -9.648,0.495 -17.814,-3.216 -23.751,-9.65 -5.689,-6.431 -8.905,-15.336 -8.905,-25.233 0,-20.04 13.112,-34.883 32.656,-34.883 17.07,0 25.233,9.896 29.686,18.308 z"
             style="fill:#0694fc;fill-opacity:1;fill-rule:nonzero;stroke:none"
             id="path3817"
             inkscape:connector-curvature="0" /></g><path
            d="m 373.176,1046.262 h 41.069 V 908.957 h -41.069 z m 0,45.767 h 41.069 v -31.17 h -41.069 z"
            style="fill:#0694fc;fill-opacity:1;fill-rule:nonzero;stroke:none"
            id="path3819"
            inkscape:connector-curvature="0"/><g
            id="g3821"
            transform="translate(539.4189,994.5547)"><path
             d="M 0,0 C -0.991,6.434 -9.402,21.773 -30.676,21.773 -51.953,21.773 -60.365,6.434 -61.355,0 Z m -61.849,-31.17 c 1.733,-14.598 15.585,-24.245 31.666,-24.245 13.114,0 20.038,5.688 24.988,12.864 H 36.861 C 30.182,-57.89 20.534,-69.765 8.905,-77.68 c -11.38,-8.166 -24.987,-12.371 -39.088,-12.371 -39.336,0 -72.734,31.915 -72.734,72.734 0,38.348 30.182,73.725 71.992,73.725 21.029,0 39.088,-8.166 51.953,-21.77 C 38.346,16.082 43.541,-5.937 40.324,-31.17 Z"
             style="fill:#0694fc;fill-opacity:1;fill-rule:nonzero;stroke:none"
             id="path3823"
             inkscape:connector-curvature="0" /></g><g
            id="g3825"
            transform="translate(603.729,1046.2617)"><path
             d="m 0,0 h 38.346 v -14.597 c 4.698,6.679 13.358,19.298 37.852,19.298 46.26,0 50.962,-37.604 50.962,-56.16 v -85.846 H 86.091 v 74.962 c 0,15.092 -3.214,28.45 -21.522,28.45 -20.286,0 -23.503,-14.597 -23.503,-28.698 v -74.714 H 0 Z"
             style="fill:#0694fc;fill-opacity:1;fill-rule:nonzero;stroke:none"
             id="path3827"
             inkscape:connector-curvature="0" /></g><g
            id="g3829"
            transform="translate(773.1777,1015.0889)"><path
             d="M 0,0 H -20.286 V 31.173 H 0 V 76.94 H 41.069 V 31.173 H 60.861 V 0 H 41.069 V -106.132 H 0 Z"
             style="fill:#0694fc;fill-opacity:1;fill-rule:nonzero;stroke:none"
             id="path3831"
             inkscape:connector-curvature="0" /></g><path
            d="m 856.792,1046.262 h 41.066 V 908.957 h -41.066 z m 0,45.767 h 41.066 v -31.17 h -41.066 z"
            style="fill:#0694fc;fill-opacity:1;fill-rule:nonzero;stroke:none"
            id="path3833"
            inkscape:connector-curvature="0"/><path
            d="m 1010.429,1060.852 h 41.054 v 31.182 h -41.054 z m -0.46,-14.578 0.46,-137.305 h 41.053 v 137.305 z m -34.942,0 v 5.193 c 0,13.089 9.655,13.089 17.336,13.089 v 30.94 c -28.938,0 -58.389,-3.462 -58.389,-43.299 v -5.923 h -15.335 v -31.182 h 15.335 V 908.969 h 41.053 v 106.123 h 22.447 v 31.182 z"
            style="fill:#0694fc;fill-opacity:1;fill-rule:nonzero;stroke:none"
            id="path3835"
            inkscape:connector-curvature="0"/><g
            id="g3837"
            transform="translate(1224.8945,961.1582)"><path
             d="m 0,0 c -7.422,-31.173 -34.884,-56.654 -71.993,-56.654 -41.56,0 -73.475,32.657 -73.475,73.475 0,40.326 31.418,72.983 72.488,72.983 36.367,0 65.807,-23.999 72.732,-57.644 h -41.563 c -4.453,9.403 -12.617,19.298 -29.686,19.298 -9.648,0.495 -17.814,-3.216 -23.751,-9.65 -5.689,-6.431 -8.905,-15.336 -8.905,-25.233 0,-20.04 13.112,-34.883 32.656,-34.883 17.069,0 25.233,9.896 29.686,18.308 z"
             style="fill:#0694fc;fill-opacity:1;fill-rule:nonzero;stroke:none"
             id="path3839"
             inkscape:connector-curvature="0" /></g><g
            id="g3841"
            transform="translate(1376.7803,965.1172)"><path
             d="M 0,0 -0.742,126.912 H 34.635 V -56.16 H 1.979 L -82.384,70.506 -81.642,-56.16 h -35.377 v 183.072 h 32.903 z"
             style="fill:#b4b5b5;fill-opacity:1;fill-rule:nonzero;stroke:none"
             id="path3843"
             inkscape:connector-curvature="0" /></g><g
            id="g3845"
            transform="translate(1470.2793,976.7432)"><path
             d="m 0,0 c 0,-23.749 18.06,-41.314 40.324,-41.314 22.267,0 40.078,17.565 40.078,41.562 0,23.997 -17.811,41.563 -40.078,41.563 C 18.06,41.811 0,24.245 0,0.248 Z m -32.408,0.494 c 0,34.637 25.481,71.499 72.732,71.499 47.254,0 72.736,-36.862 72.736,-71.745 0,-35.132 -25.482,-71.993 -72.736,-71.993 -47.251,0 -72.732,36.861 -72.732,71.993 z"
             style="fill:#b4b5b5;fill-opacity:1;fill-rule:nonzero;stroke:none"
             id="path3847"
             inkscape:connector-curvature="0" /></g><g
            id="g3849"
            transform="translate(1617.2188,1019.79)"><path
             d="M 0,0 H -22.516 V 24.987 H 0 V 72.239 H 32.408 V 24.987 H 55.663 V 0 H 32.408 V -110.833 H 0 Z"
             style="fill:#b4b5b5;fill-opacity:1;fill-rule:nonzero;stroke:none"
             id="path3851"
             inkscape:connector-curvature="0" /></g><g
            id="g3853"
            transform="translate(1787.1719,990.8437)"><path
             d="M 0,0 C -1.236,12.865 -14.843,30.924 -38.594,30.679 -62.591,30.679 -75.701,13.361 -76.94,0 Z m -77.434,-24.739 c 1.485,-21.77 20.781,-33.893 39.336,-33.645 15.833,0 26.472,7.174 32.655,18.309 H 27.956 C 21.524,-55.167 11.874,-66.547 0.494,-74.217 c -11.378,-7.918 -24.739,-11.874 -38.84,-11.874 -41.81,0 -71.745,33.893 -71.745,71.742 0,38.594 30.183,72.487 71.251,72.487 20.286,0 38.098,-7.669 50.714,-20.78 C 28.45,20.286 34.635,-0.987 31.915,-24.739 Z"
             style="fill:#b4b5b5;fill-opacity:1;fill-rule:nonzero;stroke:none"
             id="path3855"
             inkscape:connector-curvature="0" /></g><g
            id="g3857"
            transform="translate(1902.6924,1008.1616)"><path
             d="m 0,0 c -0.248,7.176 -3.959,14.597 -16.575,14.597 -10.887,0 -16.081,-6.928 -16.081,-13.607 0.248,-8.657 10.141,-13.359 23.006,-17.07 21.77,-5.936 45.273,-12.37 45.521,-41.562 0.494,-27.955 -23.006,-45.767 -51.459,-45.767 -21.028,0 -49.477,10.884 -51.952,43.789 h 32.408 c 1.239,-14.597 13.856,-17.566 20.041,-17.566 10.142,0 18.802,6.68 18.554,15.834 0,11.626 -10.145,14.843 -35.129,23.503 -18.309,5.688 -33.151,15.833 -33.399,35.377 0,26.717 22.512,43.292 48.735,43.292 18.309,0 45.522,-8.163 48.242,-40.82 z"
             style="fill:#b4b5b5;fill-opacity:1;fill-rule:nonzero;stroke:none"
             id="path3859"
             inkscape:connector-curvature="0" /></g></g></g></g></svg>